{
	"asset":{
		"generator":"Khronos glTF Blender I/O v4.0.44",
		"version":"2.0"
	},
	"scene":0,
	"scenes":[
		{
			"name":"Scene",
			"nodes":[
				0
			]
		}
	],
	"nodes":[
		{
			"mesh":0,
			"name":"Cylinder"
		}
	],
	"materials":[
		{
			"doubleSided":true,
			"name":"Material.001",
			"pbrMetallicRoughness":{
				"baseColorFactor":[
					0,
					0,
					0,
					1
				],
				"metallicFactor":0,
				"roughnessFactor":0.4000000059604645
			}
		}
	],
	"meshes":[
		{
			"name":"Cylinder",
			"primitives":[
				{
					"attributes":{
						"POSITION":0,
						"NORMAL":1,
						"TEXCOORD_0":2
					},
					"indices":3,
					"material":0
				}
			]
		}
	],
	"accessors":[
		{
			"bufferView":0,
			"componentType":5126,
			"count":1741,
			"max":[
				1.0082000494003296,
				1,
				1.0082000494003296
			],
			"min":[
				-1.0082000494003296,
				-1,
				-1.0082000494003296
			],
			"type":"VEC3"
		},
		{
			"bufferView":1,
			"componentType":5126,
			"count":1741,
			"type":"VEC3"
		},
		{
			"bufferView":2,
			"componentType":5126,
			"count":1741,
			"type":"VEC2"
		},
		{
			"bufferView":3,
			"componentType":5123,
			"count":8154,
			"type":"SCALAR"
		}
	],
	"bufferViews":[
		{
			"buffer":0,
			"byteLength":20892,
			"byteOffset":0,
			"target":34962
		},
		{
			"buffer":0,
			"byteLength":20892,
			"byteOffset":20892,
			"target":34962
		},
		{
			"buffer":0,
			"byteLength":13928,
			"byteOffset":41784,
			"target":34962
		},
		{
			"buffer":0,
			"byteLength":16308,
			"byteOffset":55712,
			"target":34963
		}
	],
	"buffers":[
		{
			"byteLength":72020,
			"uri":"poubelle.bin"
		}
	]
}
